<?xml version="1.0" encoding="UTF-8" standalone="no"?>
<!-- Created with Inkscape (http://www.inkscape.org/) -->

<svg
   xmlns:dc="http://purl.org/dc/elements/1.1/"
   xmlns:cc="http://creativecommons.org/ns#"
   xmlns:rdf="http://www.w3.org/1999/02/22-rdf-syntax-ns#"
   xmlns:svg="http://www.w3.org/2000/svg"
   xmlns="http://www.w3.org/2000/svg"
   xmlns:sodipodi="http://sodipodi.sourceforge.net/DTD/sodipodi-0.dtd"
   xmlns:inkscape="http://www.inkscape.org/namespaces/inkscape"
   width="1052.3622"
   height="744.09448"
   id="svg2"
   version="1.1"
   inkscape:version="0.91 r13725"
   sodipodi:docname="Keyboard-Layout-A.svg"
   style="display:inline">
  <style type="text/css" media="screen">  
    <![CDATA[  
    #internal rect {  
        fill: slategrey;  
        stroke: black;  
        stroke-width: 3;  
        -webkit-transition: all 350ms;  
    }  
    #internal rect:hover {  
        fill: green;  
    }  	
	.down {fill:blue;} 
	#keyboard-layout div {display: inline; border:1px solid gray;}
	 #kbd_tilde {
            fill: yellow;
        }
    ]]>  
</style>  
  <defs
     id="defs23822" />
  <sodipodi:namedview
     id="base"
     pagecolor="#ffffff"
     bordercolor="#666666"
     borderopacity="1.0"
     inkscape:pageopacity="0.0"
     inkscape:pageshadow="2"
     inkscape:zoom="0.87492245"
     inkscape:cx="254.50002"
     inkscape:cy="514.5777"
     inkscape:document-units="px"
     inkscape:current-layer="layer2"
     showgrid="false"
     inkscape:snap-bbox="true"
     inkscape:snap-nodes="false"
     inkscape:snap-global="false"
     showguides="true"
     inkscape:window-width="1366"
     inkscape:window-height="705"
     inkscape:window-x="-4"
     inkscape:window-y="-4"
     inkscape:window-maximized="1"
     inkscape:guide-bbox="true"
     inkscape:snap-to-guides="true"
     borderlayer="true"
     inkscape:snap-grids="false">
    <inkscape:grid
       empopacity="0.25098039"
       empcolor="#a500ff"
       spacingy="0.5px"
       spacingx="0.5px"
       snapvisiblegridlinesonly="true"
       enabled="true"
       visible="true"
       empspacing="2"
       id="grid2997"
       type="xygrid" />
    <sodipodi:guide
       position="817.41544,274.35743"
       orientation="1,0"
       id="guide21084" />
    <sodipodi:guide
       position="18.384776,432.74935"
       orientation="1,0"
       id="guide21365" />
    <sodipodi:guide
       position="632.6275,514.90278"
       orientation="1,0"
       id="guide23658" />
    <sodipodi:guide
       position="790.92725,587.48064"
       orientation="0,1"
       id="guide23660" />
  </sodipodi:namedview>
  <title
     id="title6676">Inkscape Keyboard Layout</title>
  <metadata
     id="metadata7">
    <rdf:RDF>
      <cc:Work
         rdf:about="">
        <dc:format>image/svg+xml</dc:format>
        <dc:type
           rdf:resource="http://purl.org/dc/dcmitype/StillImage" />
        <dc:title>Inkscape Keyboard Layout</dc:title>
        <dc:date>3/13/2013</dc:date>
        <dc:creator>
          <cc:Agent>
            <dc:title>vperez</dc:title>
          </cc:Agent>
        </dc:creator>
        <dc:publisher>
          <cc:Agent>
            <dc:title>self</dc:title>
          </cc:Agent>
        </dc:publisher>
        <dc:language>English</dc:language>
        <dc:subject>
          <rdf:Bag>
            <rdf:li>Inkscape Keyboard Shortcuts</rdf:li>
          </rdf:Bag>
        </dc:subject>
        <dc:description>font: Sans</dc:description>
      </cc:Work>
    </rdf:RDF>
  </metadata>
  <g
     style="display:inline"
     inkscape:label="Keyboard cut out"
     id="layer2"
     inkscape:groupmode="layer">
    <path
       style="color:#000000;display:inline;overflow:visible;visibility:visible;fill:#666666;fill-opacity:1;fill-rule:nonzero;stroke:none;stroke-width:1;marker:none;enable-background:accumulate"
       d="m 46.576139,33.883863 c -2.145109,0 -3.865402,1.642078 -3.865402,3.681788 l 0,301.382279 c 0,2.03972 1.720293,3.68179 3.865402,3.68179 l 723.824061,0 c 2.14547,0 3.86544,-1.64207 3.86544,-3.68179 l 0,-301.382279 c 0,-2.03971 -1.71997,-3.681788 -3.86544,-3.681788 z"
       id="path19506"
       inkscape:connector-curvature="0" />
    <path
       style="color:#000000;display:inline;overflow:visible;visibility:visible;fill:#888888;fill-opacity:1;fill-rule:nonzero;stroke:none;stroke-width:1;marker:none;enable-background:accumulate"
       d="m 497.4437,237.10306 25.17818,0 c 1.99268,0 3.59689,1.64209 3.59689,3.6818 l 0,25.77253 c 0,2.03971 -1.60421,3.68178 -3.59689,3.68178 l -25.17818,0 c -1.99268,0 -3.59689,-1.64207 -3.59689,-3.68178 l 0,-25.77253 c 0,-2.03971 1.60421,-3.6818 3.59689,-3.6818 z"
       id="path21796"
       inkscape:connector-curvature="0" />
    <path
       style="color:#000000;display:inline;overflow:visible;visibility:visible;fill:#888888;fill-opacity:1;fill-rule:nonzero;stroke:none;stroke-width:1;marker:none;enable-background:accumulate"
       d="m 458.59735,237.10306 25.17819,0 c 1.99267,0 3.59688,1.64209 3.59688,3.6818 l 0,25.77253 c 0,2.03971 -1.60421,3.68178 -3.59688,3.68178 l -25.17819,0 c -1.99267,0 -3.59688,-1.64207 -3.59688,-3.68178 l 0,-25.77253 c 0,-2.03971 1.60421,-3.6818 3.59688,-3.6818 z"
       id="path21794"
       inkscape:connector-curvature="0" />
    <path
       style="color:#000000;display:inline;overflow:visible;visibility:visible;fill:#888888;fill-opacity:1;fill-rule:nonzero;stroke:none;stroke-width:1;marker:none;enable-background:accumulate"
       d="m 419.75101,237.10306 25.17819,0 c 1.99267,0 3.59688,1.64209 3.59688,3.6818 l 0,25.77253 c 0,2.03971 -1.60421,3.68178 -3.59688,3.68178 l -25.17819,0 c -2.15813,5.4e-4 -3.59692,-1.47222 -3.59689,-3.68178 l 0,-25.77253 c -3e-5,-2.20857 1.43876,-3.68126 3.59689,-3.6818 z"
       id="path21792"
       inkscape:connector-curvature="0" />
    <path
       style="color:#000000;display:inline;overflow:visible;visibility:visible;fill:#888888;fill-opacity:1;fill-rule:nonzero;stroke:none;stroke-width:1;marker:none;enable-background:accumulate"
       d="m 380.90466,237.10306 25.17819,0 c 1.99267,0 3.59688,1.64209 3.59688,3.6818 l 0,25.77253 c 0,2.03971 -1.60421,3.68178 -3.59688,3.68178 l -25.17819,0 c -1.99267,0 -3.59688,-1.64207 -3.59688,-3.68178 l 0,-25.77253 c 0,-2.03971 1.60421,-3.6818 3.59688,-3.6818 z"
       id="path21790"
       inkscape:connector-curvature="0" />
    <path
       style="color:#000000;display:inline;overflow:visible;visibility:visible;fill:#888888;fill-opacity:1;fill-rule:nonzero;stroke:none;stroke-width:1;marker:none;enable-background:accumulate"
       d="m 342.05832,237.10306 25.17819,0 c 1.99267,0 3.59688,1.64209 3.59688,3.6818 l 0,25.77253 c 0,2.03971 -1.60421,3.68178 -3.59688,3.68178 l -25.17819,0 c -1.99268,0 -3.59688,-1.64207 -3.59688,-3.68178 l 0,-25.77253 c 0,-2.03971 1.6042,-3.6818 3.59688,-3.6818 z"
       id="path21788"
       inkscape:connector-curvature="0" />
    <path
       style="color:#000000;display:inline;overflow:visible;visibility:visible;fill:#888888;fill-opacity:1;fill-rule:nonzero;stroke:none;stroke-width:1;marker:none;enable-background:accumulate"
       d="m 303.21197,237.10306 25.17819,0 c 1.99268,0 3.59688,1.64209 3.59688,3.6818 l 0,25.77253 c 0,2.03971 -1.6042,3.68178 -3.59688,3.68178 l -25.17819,0 c -1.99267,0 -3.59688,-1.64207 -3.59688,-3.68178 l 0,-25.77253 c 0,-2.03971 1.60421,-3.6818 3.59688,-3.6818 z"
       id="path21786"
       inkscape:connector-curvature="0" />
    <path
       style="color:#000000;display:inline;overflow:visible;visibility:visible;fill:#888888;fill-opacity:1;fill-rule:nonzero;stroke:none;stroke-width:1;marker:none;enable-background:accumulate"
       d="m 264.36563,237.10306 25.17819,0 c 1.99267,0 3.59688,1.64209 3.59688,3.6818 l 0,25.77253 c 0,2.03971 -1.60421,3.68178 -3.59688,3.68178 l -25.17819,0 c -2.15813,5.4e-4 -3.59692,-1.47222 -3.59688,-3.68178 l 0,-25.77253 c -4e-5,-2.20857 1.43875,-3.68126 3.59688,-3.6818 z"
       id="path21784"
       inkscape:connector-curvature="0" />
    <path
       style="color:#000000;display:inline;overflow:visible;visibility:visible;fill:#888888;fill-opacity:1;fill-rule:nonzero;stroke:none;stroke-width:1;marker:none;enable-background:accumulate"
       d="m 186.67294,237.10306 25.17819,0 c 1.99267,0 3.59688,1.64209 3.59688,3.6818 l 0,25.77253 c 0,2.03971 -1.60421,3.68178 -3.59688,3.68178 l -25.17819,0 c -1.99267,0 -3.59688,-1.64207 -3.59688,-3.68178 l 0,-25.77253 c 0,-2.03971 1.60421,-3.6818 3.59688,-3.6818 z"
       id="path21782"
       inkscape:connector-curvature="0" />
    <path
       style="color:#000000;display:inline;overflow:visible;visibility:visible;fill:#888888;fill-opacity:1;fill-rule:nonzero;stroke:none;stroke-width:1;marker:none;enable-background:accumulate"
       d="m 147.8266,237.10306 25.17818,0 c 1.99268,0 3.59689,1.64209 3.59689,3.6818 l 0,25.77253 c 0,2.03971 -1.60421,3.68178 -3.59689,3.68178 l -25.17818,0 c -1.99268,0 -3.59689,-1.64207 -3.59689,-3.68178 l 0,-25.77253 c 0,-2.03971 1.60421,-3.6818 3.59689,-3.6818 z"
       id="path21780"
       inkscape:connector-curvature="0" />
    <path
       style="color:#000000;display:inline;overflow:visible;visibility:visible;fill:#888888;fill-opacity:1;fill-rule:nonzero;stroke:none;stroke-width:1;marker:none;enable-background:accumulate"
       d="m 60.884261,237.10306 73.274179,0 c 1.99267,0 3.59688,1.64209 3.59688,3.6818 l 0,25.77253 c 0,2.03971 -1.60421,3.68178 -3.59688,3.68178 l -73.274179,0 c -1.992673,0 -3.596884,-1.64207 -3.596884,-3.68178 l 0,-25.77253 c 0,-2.03971 1.604211,-3.6818 3.596884,-3.6818 z"
       id="kbd_shift_left"
       inkscape:connector-curvature="0"
       inkscape:label="#path21778" />
    <path
       style="color:#000000;display:inline;overflow:visible;visibility:visible;fill:#888888;fill-opacity:1;fill-rule:nonzero;stroke:none;stroke-width:1;marker:none;enable-background:accumulate"
       d="m 225.51928,237.10306 25.17819,0 c 1.99268,0 3.59688,1.64209 3.59688,3.6818 l 0,25.77253 c 0,2.03971 -1.6042,3.68178 -3.59688,3.68178 l -25.17819,0 c -1.99267,0 -3.59688,-1.64207 -3.59688,-3.68178 l 0,-25.77253 c 0,-2.03971 1.60421,-3.6818 3.59688,-3.6818 z"
       id="path21776"
       inkscape:connector-curvature="0" />
    <path
       style="color:#000000;display:inline;overflow:visible;visibility:visible;fill:#888888;fill-opacity:1;fill-rule:nonzero;stroke:none;stroke-width:1;marker:none;enable-background:accumulate"
       d="m 522.62188,197.33974 25.17818,0 c 1.99268,0 3.59689,1.64208 3.59689,3.68179 l 0,25.77252 c 0,2.03971 -1.60421,3.6818 -3.59689,3.6818 l -25.17818,0 c -1.99267,0 -3.59689,-1.64209 -3.59689,-3.6818 l 0,-25.77252 c 0,-2.03971 1.60422,-3.68179 3.59689,-3.68179 z"
       id="path21772"
       inkscape:connector-curvature="0" />
    <path
       style="color:#000000;display:inline;overflow:visible;visibility:visible;fill:#888888;fill-opacity:1;fill-rule:nonzero;stroke:none;stroke-width:1;marker:none;enable-background:accumulate"
       d="m 483.77554,197.33974 25.17818,0 c 1.99267,0 3.59689,1.64208 3.59689,3.68179 l 0,25.77252 c 0,2.03971 -1.60422,3.6818 -3.59689,3.6818 l -25.17818,0 c -1.99267,0 -3.59689,-1.64209 -3.59689,-3.6818 l 0,-25.77252 c 0,-2.03971 1.60422,-3.68179 3.59689,-3.68179 z"
       id="path21770"
       inkscape:connector-curvature="0" />
    <path
       style="color:#000000;display:inline;overflow:visible;visibility:visible;fill:#888888;fill-opacity:1;fill-rule:nonzero;stroke:none;stroke-width:1;marker:none;enable-background:accumulate"
       d="m 444.9292,197.33974 25.17817,0 c 1.99268,0 3.5969,1.64208 3.5969,3.68179 l 0,25.77252 c 0,2.03971 -1.60422,3.6818 -3.5969,3.6818 l -25.17817,0 c -1.99268,0 -3.5969,-1.64209 -3.5969,-3.6818 l 0,-25.77252 c 0,-2.03971 1.60422,-3.68179 3.5969,-3.68179 z"
       id="path21768"
       inkscape:connector-curvature="0" />
    <path
       style="color:#000000;display:inline;overflow:visible;visibility:visible;fill:#888888;fill-opacity:1;fill-rule:nonzero;stroke:none;stroke-width:1;marker:none;enable-background:accumulate"
       d="m 406.08285,197.33974 25.17818,0 c 1.99267,0 3.59689,1.64208 3.59689,3.68179 l 0,25.77252 c 0,2.03971 -1.60422,3.6818 -3.59689,3.6818 l -25.17818,0 c -2.15813,5.3e-4 -3.59692,-1.47222 -3.59689,-3.6818 l 0,-25.77252 c -3e-5,-2.20858 1.43876,-3.68126 3.59689,-3.68179 z"
       id="path21766"
       inkscape:connector-curvature="0" />
    <path
       style="color:#000000;display:inline;overflow:visible;visibility:visible;fill:#888888;fill-opacity:1;fill-rule:nonzero;stroke:none;stroke-width:1;marker:none;enable-background:accumulate"
       d="m 367.23651,197.33974 25.17818,0 c 1.99267,0 3.59689,1.64208 3.59689,3.68179 l 0,25.77252 c 0,2.03971 -1.60422,3.6818 -3.59689,3.6818 l -25.17818,0 c -1.99268,0 -3.59688,-1.64209 -3.59688,-3.6818 l 0,-25.77252 c 0,-2.03971 1.6042,-3.68179 3.59688,-3.68179 z"
       id="path21764"
       inkscape:connector-curvature="0" />
    <path
       style="color:#000000;display:inline;overflow:visible;visibility:visible;fill:#888888;fill-opacity:1;fill-rule:nonzero;stroke:none;stroke-width:1;marker:none;enable-background:accumulate"
       d="m 328.39016,197.33974 25.17818,0 c 1.99268,0 3.59689,1.64208 3.59689,3.68179 l 0,25.77252 c 0,2.03971 -1.60421,3.6818 -3.59689,3.6818 l -25.17818,0 c -1.99267,0 -3.59688,-1.64209 -3.59688,-3.6818 l 0,-25.77252 c 0,-2.03971 1.60421,-3.68179 3.59688,-3.68179 z"
       id="path21762"
       inkscape:connector-curvature="0" />
    <path
       style="color:#000000;display:inline;overflow:visible;visibility:visible;fill:#888888;fill-opacity:1;fill-rule:nonzero;stroke:none;stroke-width:1;marker:none;enable-background:accumulate"
       d="m 289.54382,197.33974 25.17819,0 c 1.99267,0 3.59688,1.64208 3.59688,3.68179 l 0,25.77252 c 0,2.03971 -1.60421,3.6818 -3.59688,3.6818 l -25.17819,0 c -1.99268,0 -3.59688,-1.64209 -3.59688,-3.6818 l 0,-25.77252 c 0,-2.03971 1.6042,-3.68179 3.59688,-3.68179 z"
       id="path21760"
       inkscape:connector-curvature="0" />
    <path
       style="color:#000000;display:inline;overflow:visible;visibility:visible;fill:#888888;fill-opacity:1;fill-rule:nonzero;stroke:none;stroke-width:1;marker:none;enable-background:accumulate"
       d="m 250.69747,197.33974 25.17819,0 c 1.99268,0 3.59688,1.64208 3.59688,3.68179 l 0,25.77252 c 0,2.03971 -1.6042,3.6818 -3.59688,3.6818 l -25.17819,0 c -2.15813,5.3e-4 -3.59688,-1.47218 -3.59688,-3.6818 l 0,-25.77252 c 0,-2.20854 1.43875,-3.68126 3.59688,-3.68179 z"
       id="path21758"
       inkscape:connector-curvature="0" />
    <path
       style="color:#000000;display:inline;overflow:visible;visibility:visible;fill:#888888;fill-opacity:1;fill-rule:nonzero;stroke:none;stroke-width:1;marker:none;enable-background:accumulate"
       d="m 211.85113,197.33974 25.17819,0 c 1.99267,0 3.59688,1.64208 3.59688,3.68179 l 0,25.77252 c 0,2.03971 -1.60421,3.6818 -3.59688,3.6818 l -25.17819,0 c -1.99267,0 -3.59688,-1.64209 -3.59688,-3.6818 l 0,-25.77252 c 0,-2.03971 1.60421,-3.68179 3.59688,-3.68179 z"
       id="path21756"
       inkscape:connector-curvature="0" />
    <path
       style="color:#000000;display:inline;overflow:visible;visibility:visible;fill:#888888;fill-opacity:1;fill-rule:nonzero;stroke:none;stroke-width:1;marker:none;enable-background:accumulate"
       d="m 173.00478,197.33974 25.17819,0 c 1.99268,0 3.59689,1.64208 3.59689,3.68179 l 0,25.77252 c 0,2.03971 -1.60421,3.6818 -3.59689,3.6818 l -25.17819,0 c -1.99267,0 -3.59688,-1.64209 -3.59688,-3.6818 l 0,-25.77252 c 0,-2.03971 1.60421,-3.68179 3.59688,-3.68179 z"
       id="path21754"
       inkscape:connector-curvature="0" />
    <path
       style="color:#000000;display:inline;overflow:visible;visibility:visible;fill:#888888;fill-opacity:1;fill-rule:nonzero;stroke:none;stroke-width:1;marker:none;enable-background:accumulate"
       d="m 134.15844,197.33974 25.17819,0 c 1.99267,0 3.59688,1.64208 3.59688,3.68179 l 0,25.77252 c 0,2.03971 -1.60421,3.6818 -3.59688,3.6818 l -25.17819,0 c -1.99267,0 -3.59688,-1.64209 -3.59688,-3.6818 l 0,-25.77252 c 0,-2.03971 1.60421,-3.68179 3.59688,-3.68179 z"
       id="path21752"
       inkscape:connector-curvature="0" />
    <path
       style="color:#000000;display:inline;overflow:visible;visibility:visible;fill:#888888;fill-opacity:1;fill-rule:nonzero;stroke:none;stroke-width:1;marker:none;enable-background:accumulate"
       d="m 60.53516,197.33974 59.95512,0 c 1.99268,0 3.59689,1.64208 3.59689,3.68179 l 0,25.77252 c 0,2.03971 -1.60421,3.6818 -3.59689,3.6818 l -59.95512,0 c -1.992674,0 -3.596884,-1.64209 -3.596884,-3.6818 l 0,-25.77252 c 0,-2.03971 1.60421,-3.68179 3.596884,-3.68179 z"
       id="path21750"
       inkscape:connector-curvature="0" />
    <path
       style="color:#000000;display:inline;overflow:visible;visibility:visible;fill:#777777;fill-opacity:1;fill-rule:nonzero;stroke:none;stroke-width:1;marker:none;enable-background:accumulate"
       d="m 60.782012,66.543324 25.178185,0 c 1.992674,0 3.596884,1.642078 3.596884,3.681789 l 0,25.772533 c 0,2.03971 -1.60421,3.681795 -3.596884,3.681795 l -25.178185,0 c -1.992674,0 -3.596885,-1.642085 -3.596885,-3.681795 l 0,-25.772533 c 0,-2.039711 1.604211,-3.681789 3.596885,-3.681789 z"
       id="path21748"
       inkscape:connector-curvature="0" />
    <path
       style="color:#000000;display:inline;overflow:visible;visibility:visible;fill:#777777;fill-opacity:1;fill-rule:nonzero;stroke:none;stroke-width:1;marker:none;enable-background:accumulate"
       d="m 602.4727,66.543324 25.17819,0 c 1.99267,0 3.59688,1.642078 3.59688,3.681789 l 0,25.772533 c 0,2.03971 -1.60421,3.681795 -3.59688,3.681795 l -25.17819,0 c -2.12808,-0.138694 -3.44584,-1.637658 -3.59688,-3.681795 l 0,-25.772533 c 0.12698,-2.1867 1.61298,-3.532529 3.59688,-3.681789 z"
       id="path21746"
       inkscape:connector-curvature="0" />
    <path
       style="color:#000000;display:inline;overflow:visible;visibility:visible;fill:#777777;fill-opacity:1;fill-rule:nonzero;stroke:none;stroke-width:1;marker:none;enable-background:accumulate"
       d="m 563.62636,66.543324 25.17819,0 c 1.99267,0 3.59688,1.642078 3.59688,3.681789 l 0,25.772533 c 0,2.03971 -1.60421,3.681795 -3.59688,3.681795 l -25.17819,0 c -1.99268,0 -3.59688,-1.642085 -3.59688,-3.681795 l 0,-25.772533 c 0,-2.039711 1.6042,-3.681789 3.59688,-3.681789 z"
       id="path21744"
       inkscape:connector-curvature="0" />
    <path
       style="color:#000000;display:inline;overflow:visible;visibility:visible;fill:#777777;fill-opacity:1;fill-rule:nonzero;stroke:none;stroke-width:1;marker:none;enable-background:accumulate"
       d="m 524.78001,66.543324 25.17819,0 c 1.99268,0 3.59688,1.642078 3.59688,3.681789 l 0,25.772533 c 0,2.03971 -1.6042,3.681795 -3.59688,3.681795 l -25.17819,0 c -1.99267,0 -3.59688,-1.642085 -3.59688,-3.681795 l 0,-25.772533 c 0,-2.039711 1.60421,-3.681789 3.59688,-3.681789 z"
       id="path21742"
       inkscape:connector-curvature="0" />
    <path
       style="color:#000000;display:inline;overflow:visible;visibility:visible;fill:#777777;fill-opacity:1;fill-rule:nonzero;stroke:none;stroke-width:1;marker:none;enable-background:accumulate"
       d="m 485.93368,66.543324 25.17818,0 c 1.99267,0 3.59688,1.642078 3.59688,3.681789 l 0,25.772533 c 0,2.03971 -1.60421,3.681795 -3.59688,3.681795 l -25.17818,0 c -1.99268,0 -3.59689,-1.642085 -3.59689,-3.681795 l 0,-25.772533 c 0,-2.039711 1.60421,-3.681789 3.59689,-3.681789 z"
       id="path21740"
       inkscape:connector-curvature="0" />
    <path
       style="color:#000000;display:inline;overflow:visible;visibility:visible;fill:#777777;fill-opacity:1;fill-rule:nonzero;stroke:none;stroke-width:1;marker:none;enable-background:accumulate"
       d="m 421.90914,66.543324 25.17819,0 c 1.99268,0 3.59689,1.642078 3.59689,3.681789 l 0,25.772533 c 0,2.03971 -1.60421,3.681795 -3.59689,3.681795 l -25.17819,0 c -1.99267,0 -3.59688,-1.642085 -3.59688,-3.681795 l 0,-25.772533 c 0,-2.039711 1.60421,-3.681789 3.59688,-3.681789 z"
       id="path21738"
       inkscape:connector-curvature="0" />
    <path
       style="color:#000000;display:inline;overflow:visible;visibility:visible;fill:#777777;fill-opacity:1;fill-rule:nonzero;stroke:none;stroke-width:1;marker:none;enable-background:accumulate"
       d="m 383.0628,66.543324 25.17819,0 c 1.99267,0 3.59688,1.642078 3.59688,3.681789 l 0,25.772533 c 0,2.03971 -1.60421,3.681795 -3.59688,3.681795 l -25.17819,0 c -1.99267,0 -3.59688,-1.642085 -3.59688,-3.681795 l 0,-25.772533 c 0,-2.039711 1.60421,-3.681789 3.59688,-3.681789 z"
       id="path21736"
       inkscape:connector-curvature="0" />
    <path
       style="color:#000000;display:inline;overflow:visible;visibility:visible;fill:#777777;fill-opacity:1;fill-rule:nonzero;stroke:none;stroke-width:1;marker:none;enable-background:accumulate"
       d="m 344.21646,66.543324 25.17819,0 c 1.99267,0 3.59688,1.642078 3.59688,3.681789 l 0,25.772533 c 0,2.03971 -1.60421,3.681795 -3.59688,3.681795 l -25.17819,0 c -1.99268,0 -3.59689,-1.642085 -3.59689,-3.681795 l 0,-25.772533 c 0,-2.039711 1.60421,-3.681789 3.59689,-3.681789 z"
       id="path21734"
       inkscape:connector-curvature="0" />
    <path
       style="color:#000000;display:inline;overflow:visible;visibility:visible;fill:#777777;fill-opacity:1;fill-rule:nonzero;stroke:none;stroke-width:1;marker:none;enable-background:accumulate"
       d="m 305.37011,66.543324 25.17819,0 c 1.99267,0 3.59688,1.642078 3.59688,3.681789 l 0,25.772533 c 0,2.03971 -1.60421,3.681795 -3.59688,3.681795 l -25.17819,0 c -1.99267,0 -3.59688,-1.642085 -3.59688,-3.681795 l 0,-25.772533 c 0,-2.039711 1.60421,-3.681789 3.59688,-3.681789 z"
       id="path21732"
       inkscape:connector-curvature="0" />
    <path
       style="color:#000000;display:inline;overflow:visible;visibility:visible;fill:#777777;fill-opacity:1;fill-rule:nonzero;stroke:none;stroke-width:1;marker:none;enable-background:accumulate"
       d="m 241.34558,66.543324 25.17818,0 c 1.99267,0 3.59688,1.642078 3.59688,3.681789 l 0,25.772533 c 0,2.03971 -1.60421,3.681795 -3.59688,3.681795 l -25.17818,0 c -1.99268,0 -3.59689,-1.642085 -3.59689,-3.681795 l 0,-25.772533 c 0,-2.039711 1.60421,-3.681789 3.59689,-3.681789 z"
       id="path21730"
       inkscape:connector-curvature="0" />
    <path
       style="color:#000000;display:inline;overflow:visible;visibility:visible;fill:#777777;fill-opacity:1;fill-rule:nonzero;stroke:none;stroke-width:1;marker:none;enable-background:accumulate"
       d="m 202.49924,66.543324 25.17818,0 c 1.99267,0 3.59688,1.642078 3.59688,3.681789 l 0,25.772533 c 0,2.03971 -1.60421,3.681795 -3.59688,3.681795 l -25.17818,0 c -1.99268,0 -3.5969,-1.642085 -3.5969,-3.681795 l 0,-25.772533 c 0,-2.039711 1.60422,-3.681789 3.5969,-3.681789 z"
       id="path21728"
       inkscape:connector-curvature="0" />
    <path
       style="color:#000000;display:inline;overflow:visible;visibility:visible;fill:#777777;fill-opacity:1;fill-rule:nonzero;stroke:none;stroke-width:1;marker:none;enable-background:accumulate"
       d="m 163.65289,66.543324 25.17818,0 c 1.99267,0 3.59689,1.642078 3.59689,3.681789 l 0,25.772533 c 0,2.03971 -1.60422,3.681795 -3.59689,3.681795 l -25.17818,0 c -1.99267,0 -3.59689,-1.642085 -3.59689,-3.681795 l 0,-25.772533 c 0,-2.039711 1.60422,-3.681789 3.59689,-3.681789 z"
       id="path21726"
       inkscape:connector-curvature="0" />
    <path
       style="color:#000000;display:inline;overflow:visible;visibility:visible;fill:#777777;fill-opacity:1;fill-rule:nonzero;stroke:none;stroke-width:1;marker:none;enable-background:accumulate"
       d="m 124.80654,66.543324 25.17819,0 c 1.99267,0 3.59689,1.642078 3.59689,3.681789 l 0,25.772533 c 0,2.03971 -1.60422,3.681795 -3.59689,3.681795 l -25.17819,0 c -1.99267,0 -3.59688,-1.642085 -3.59688,-3.681795 l 0,-25.772533 c 0,-2.039711 1.60421,-3.681789 3.59688,-3.681789 z"
       id="path21724"
       inkscape:connector-curvature="0" />
    <path
       style="color:#000000;display:inline;overflow:visible;visibility:visible;fill:#888888;fill-opacity:1;fill-rule:nonzero;stroke:none;stroke-width:1;marker:none;enable-background:accumulate"
       d="m 728.36363,276.8664 25.17815,0 c 1.99268,0 3.59689,1.64207 3.59689,3.68178 l 0,25.77253 c 0,2.03971 -1.60421,3.68178 -3.59689,3.68178 l -25.17815,0 c -2.15813,5.5e-4 -3.59689,-1.47217 -3.59689,-3.68178 l 0,-25.77253 c 0,-2.20853 1.43876,-3.68125 3.59689,-3.68178 z"
       id="path21722"
       inkscape:connector-curvature="0" />
    <path
       style="color:#000000;display:inline;overflow:visible;visibility:visible;fill:#888888;fill-opacity:1;fill-rule:nonzero;stroke:none;stroke-width:1;marker:none;enable-background:accumulate"
       d="m 689.51729,276.8664 25.17818,0 c 1.99267,0 3.59689,1.64207 3.59689,3.68178 l 0,25.77253 c 0,2.03971 -1.60422,3.68178 -3.59689,3.68178 l -25.17818,0 c -2.15813,5.5e-4 -3.59692,-1.4722 -3.59689,-3.68178 l 0,-25.77253 c -3e-5,-2.20857 1.43876,-3.68125 3.59689,-3.68178 z"
       id="path21720"
       inkscape:connector-curvature="0" />
    <path
       style="color:#000000;display:inline;overflow:visible;visibility:visible;fill:#888888;fill-opacity:1;fill-rule:nonzero;stroke:none;stroke-width:1;marker:none;enable-background:accumulate"
       d="m 650.67094,276.8664 25.17818,0 c 1.99268,0 3.59689,1.64207 3.59689,3.68178 l 0,25.77253 c 0,2.03971 -1.60421,3.68178 -3.59689,3.68178 l -25.17818,0 c -1.99267,0 -3.59688,-1.64207 -3.59688,-3.68178 l 0,-25.77253 c 0,-2.03971 1.60421,-3.68178 3.59688,-3.68178 z"
       id="path21718"
       inkscape:connector-curvature="0" />
    <path
       style="color:#000000;display:inline;overflow:visible;visibility:visible;fill:#888888;fill-opacity:1;fill-rule:nonzero;stroke:none;stroke-width:1;marker:none;enable-background:accumulate"
       d="m 582.33015,276.8664 46.35926,1.04136 c 1.99219,0.0447 3.59688,1.64207 3.59688,3.68178 l 0,25.77253 c 0,2.03972 -1.60469,3.72655 -3.59688,3.6818 l -46.35926,-1.04138 c -1.99219,-0.0447 -3.59688,-1.64207 -3.59688,-3.68178 l 0,-25.77253 c 0,-2.03971 1.60469,-3.72654 3.59688,-3.68178 z"
       id="path21716"
       inkscape:connector-curvature="0" />
    <path
       style="color:#000000;display:inline;overflow:visible;visibility:visible;fill:#888888;fill-opacity:1;fill-rule:nonzero;stroke:none;stroke-width:1;marker:none;enable-background:accumulate"
       d="m 537.00942,276.8664 31.65257,0 c 1.99267,0 3.59688,1.64207 3.59688,3.68178 l 0,25.77253 c 0,2.03971 -1.60421,3.68178 -3.59688,3.68178 l -31.65257,0 c -1.99268,0 -3.59689,-1.64207 -3.59689,-3.68178 l 0,-25.77253 c 0,-2.03971 1.60421,-3.68178 3.59689,-3.68178 z"
       id="path21714"
       inkscape:connector-curvature="0" />
    <path
       style="color:#000000;display:inline;overflow:visible;visibility:visible;fill:#888888;fill-opacity:1;fill-rule:nonzero;stroke:none;stroke-width:1;marker:none;enable-background:accumulate"
       d="m 490.9693,276.8664 31.65258,0 c 1.99268,0 3.59689,1.64207 3.59689,3.68178 l 0,25.77253 c 0,2.03971 -1.60421,3.68178 -3.59689,3.68178 l -31.65258,0 c -1.99267,0 -3.59688,-1.64207 -3.59688,-3.68178 l 0,-25.77253 c 0,-2.03971 1.60421,-3.68178 3.59688,-3.68178 z"
       id="path21712"
       inkscape:connector-curvature="0" />
    <path
       style="color:#000000;display:inline;overflow:visible;visibility:visible;fill:#888888;fill-opacity:1;fill-rule:nonzero;stroke:none;stroke-width:1;marker:none;enable-background:accumulate"
       d="m 445.64857,276.8664 31.65258,0 c 1.99267,0 3.59688,1.64207 3.59688,3.68178 l 0,25.77253 c 0,2.03971 -1.60421,3.68178 -3.59688,3.68178 l -31.65258,0 c -1.99268,0 -3.59689,-1.64207 -3.59689,-3.68178 l 0,-25.77253 c 0,-2.03971 1.60421,-3.68178 3.59689,-3.68178 z"
       id="path21710"
       inkscape:connector-curvature="0" />
    <path
       style="color:#000000;display:inline;overflow:visible;visibility:visible;fill:#888888;fill-opacity:1;fill-rule:nonzero;stroke:none;stroke-width:1;marker:none;enable-background:accumulate"
       d="m 209.693,276.8664 222.69384,0 c 1.99267,0 3.59688,1.64207 3.59688,3.68178 l 0,25.77253 c 0,2.03971 -1.60421,3.68178 -3.59688,3.68178 l -222.69384,0 c -1.99267,0 -3.59688,-1.64207 -3.59688,-3.68178 l 0,-25.77253 c 0,-2.03971 1.60421,-3.68178 3.59688,-3.68178 z"
       id="path21708"
       inkscape:connector-curvature="0" />
    <path
       style="color:#000000;display:inline;overflow:visible;visibility:visible;fill:#888888;fill-opacity:1;fill-rule:nonzero;stroke:none;stroke-width:1;marker:none;enable-background:accumulate"
       d="m 164.37226,276.8664 31.65258,0 c 1.99268,0 3.59688,1.64207 3.59688,3.68178 l 0,25.77253 c 0,2.03971 -1.6042,3.68178 -3.59688,3.68178 l -31.65258,0 c -1.99267,0 -3.59688,-1.64207 -3.59688,-3.68178 l 0,-25.77253 c 0,-2.03971 1.60421,-3.68178 3.59688,-3.68178 z"
       id="path21706"
       inkscape:connector-curvature="0" />
    <path
       style="color:#000000;display:inline;overflow:visible;visibility:visible;fill:#888888;fill-opacity:1;fill-rule:nonzero;stroke:none;stroke-width:1;marker:none;enable-background:accumulate"
       d="m 119.05153,276.8664 31.65258,0 c 1.99267,0 3.59688,1.64207 3.59688,3.68178 l 0,25.77253 c 0,2.03971 -1.60421,3.68178 -3.59688,3.68178 l -31.65258,0 c -1.99267,0 -3.59689,-1.64207 -3.59689,-3.68178 l 0,-25.77253 c 0,-2.03971 1.60422,-3.68178 3.59689,-3.68178 z"
       id="path21704"
       inkscape:connector-curvature="0" />
    <path
       style="color:#000000;display:inline;overflow:visible;visibility:visible;fill:#888888;fill-opacity:1;fill-rule:nonzero;stroke:none;stroke-width:1;marker:none;enable-background:accumulate"
       d="m 60.782012,276.8664 44.601358,0 c 1.99267,0 3.59688,1.64207 3.59688,3.68178 l 0,25.77253 c 0,2.03971 -1.60421,3.68178 -3.59688,3.68178 l -44.601358,0 c -1.992674,0 -3.596885,-1.64207 -3.596885,-3.68178 l 0,-25.77253 c 0,-2.03971 1.604211,-3.68178 3.596885,-3.68178 z"
       id="path21702"
       inkscape:connector-curvature="0" />
    <path
       style="color:#000000;display:inline;overflow:visible;visibility:visible;fill:#888888;fill-opacity:1;fill-rule:nonzero;stroke:none;stroke-width:1;marker:none;enable-background:accumulate"
       d="m 689.51729,237.10306 25.17818,0 c 1.99267,0 3.59689,1.64209 3.59689,3.6818 l 0,25.77253 c 0,2.03971 -1.60422,3.68178 -3.59689,3.68178 l -25.17818,0 c -2.15813,5.4e-4 -3.59689,-1.47218 -3.59689,-3.68178 l 0,-25.77253 c 0,-2.20854 1.43876,-3.68126 3.59689,-3.6818 z"
       id="path21700"
       inkscape:connector-curvature="0" />
    <path
       style="color:#000000;display:inline;overflow:visible;visibility:visible;fill:#777777;fill-opacity:1;fill-rule:nonzero;stroke:none;stroke-width:1;marker:none;enable-background:accumulate"
       d="m 728.36363,157.57641 25.17815,0 c 1.99268,0 3.59689,1.64208 3.59689,3.68179 l 0,25.77253 c 0,2.03971 -1.60421,3.68179 -3.59689,3.68179 l -25.17815,0 c -2.15813,5.4e-4 -3.59689,-1.47218 -3.59689,-3.68179 l 0,-25.77253 c 0,-2.20853 1.43876,-3.68125 3.59689,-3.68179 z"
       id="path21698"
       inkscape:connector-curvature="0" />
    <path
       style="color:#000000;display:inline;overflow:visible;visibility:visible;fill:#777777;fill-opacity:1;fill-rule:nonzero;stroke:none;stroke-width:1;marker:none;enable-background:accumulate"
       d="m 689.51729,157.57641 25.17818,0 c 1.99267,0 3.59689,1.64208 3.59689,3.68179 l 0,25.77253 c 0,2.03971 -1.60422,3.68179 -3.59689,3.68179 l -25.17818,0 c -2.15813,5.4e-4 -3.59692,-1.47222 -3.59689,-3.68179 l 0,-25.77253 c -3e-5,-2.20857 2.00741,-3.64013 3.59689,-3.68179 z"
       id="path21696"
       inkscape:connector-curvature="0" />
    <path
       style="color:#000000;display:inline;overflow:visible;visibility:visible;fill:#777777;fill-opacity:1;fill-rule:nonzero;stroke:none;stroke-width:1;marker:none;enable-background:accumulate"
       d="m 650.67094,157.57641 25.17818,0 c 1.99268,0 3.59689,1.64208 3.59689,3.68179 l 0,25.77253 c 0,2.03971 -1.60421,3.68179 -3.59689,3.68179 l -25.17818,0 c -1.99267,0 -3.59688,-1.64208 -3.59688,-3.68179 l 0,-25.77253 c 0,-2.03971 1.60421,-3.68179 3.59688,-3.68179 z"
       id="path21694"
       inkscape:connector-curvature="0" />
    <path
       style="color:#000000;display:inline;overflow:visible;visibility:visible;fill:#888888;fill-opacity:1;fill-rule:nonzero;stroke:none;stroke-width:1;marker:none;enable-background:accumulate"
       d="m 546.36131,157.57641 25.17819,0 c 1.99268,0 3.59688,1.64208 3.59688,3.68179 l 0,25.77253 c 0,2.03971 -1.6042,3.68179 -3.59688,3.68179 l -25.17819,0 c -2.15813,5.4e-4 -3.59688,-1.47218 -3.59688,-3.68179 l 0,-25.77253 c 0,-2.20853 1.43875,-3.68125 3.59688,-3.68179 z"
       id="path21690"
       inkscape:connector-curvature="0" />
    <path
       style="color:#000000;display:inline;overflow:visible;visibility:visible;fill:#888888;fill-opacity:1;fill-rule:nonzero;stroke:none;stroke-width:1;marker:none;enable-background:accumulate"
       d="m 507.51497,157.57641 25.17819,0 c 1.99267,0 3.59688,1.64208 3.59688,3.68179 l 0,25.77253 c 0,2.03971 -1.60421,3.68179 -3.59688,3.68179 l -25.17819,0 c -1.99267,0 -3.59688,-1.64208 -3.59688,-3.68179 l 0,-25.77253 c 0,-2.03971 1.60421,-3.68179 3.59688,-3.68179 z"
       id="path21688"
       inkscape:connector-curvature="0" />
    <path
       style="color:#000000;display:inline;overflow:visible;visibility:visible;fill:#888888;fill-opacity:1;fill-rule:nonzero;stroke:none;stroke-width:1;marker:none;enable-background:accumulate"
       d="m 468.66862,157.57641 25.17819,0 c 1.99268,0 3.59689,1.64208 3.59689,3.68179 l 0,25.77253 c 0,2.03971 -1.60421,3.68179 -3.59689,3.68179 l -25.17819,0 c -1.99267,0 -3.59688,-1.64208 -3.59688,-3.68179 l 0,-25.77253 c 0,-2.03971 1.60421,-3.68179 3.59688,-3.68179 z"
       id="path21686"
       inkscape:connector-curvature="0" />
    <path
       style="color:#000000;display:inline;overflow:visible;visibility:visible;fill:#888888;fill-opacity:1;fill-rule:nonzero;stroke:none;stroke-width:1;marker:none;enable-background:accumulate"
       d="m 429.82228,157.57641 25.17819,0 c 1.99267,0 3.59688,1.64208 3.59688,3.68179 l 0,25.77253 c 0,2.03971 -1.60421,3.68179 -3.59688,3.68179 l -25.17819,0 c -1.99267,0 -3.59688,-1.64208 -3.59688,-3.68179 l 0,-25.77253 c 0,-2.03971 1.60421,-3.68179 3.59688,-3.68179 z"
       id="path21684"
       inkscape:connector-curvature="0" />
    <path
       style="color:#000000;display:inline;overflow:visible;visibility:visible;fill:#888888;fill-opacity:1;fill-rule:nonzero;stroke:none;stroke-width:1;marker:none;enable-background:accumulate"
       d="m 390.97594,157.57641 25.17818,0 c 1.99268,0 3.59689,1.64208 3.59689,3.68179 l 0,25.77253 c 0,2.03971 -1.60421,3.68179 -3.59689,3.68179 l -25.17818,0 c -2.04597,-0.0373 -3.59692,-1.47222 -3.59689,-3.68179 l 0,-25.77253 c -3e-5,-2.20857 1.43875,-3.68125 3.59689,-3.68179 z"
       id="path21682"
       inkscape:connector-curvature="0" />
    <path
       style="color:#000000;display:inline;overflow:visible;visibility:visible;fill:#888888;fill-opacity:1;fill-rule:nonzero;stroke:none;stroke-width:1;marker:none;enable-background:accumulate"
       d="m 352.12959,157.57641 25.17819,0 c 1.99267,0 3.59688,1.64208 3.59688,3.68179 l 0,25.77253 c 0,2.03971 -1.60421,3.68179 -3.59688,3.68179 l -25.17819,0 c -1.99267,0 -3.59688,-1.64208 -3.59688,-3.68179 l 0,-25.77253 c 0,-2.03971 1.60421,-3.68179 3.59688,-3.68179 z"
       id="path21680"
       inkscape:connector-curvature="0" />
    <path
       style="color:#000000;display:inline;overflow:visible;visibility:visible;fill:#888888;fill-opacity:1;fill-rule:nonzero;stroke:none;stroke-width:1;marker:none;enable-background:accumulate"
       d="m 313.28325,157.57641 25.17819,0 c 1.99267,0 3.59688,1.64208 3.59688,3.68179 l 0,25.77253 c 0,2.03971 -1.60421,3.68179 -3.59688,3.68179 l -25.17819,0 c -1.99268,0 -3.59688,-1.64208 -3.59688,-3.68179 l 0,-25.77253 c 0,-2.03971 1.6042,-3.68179 3.59688,-3.68179 z"
       id="path21678"
       inkscape:connector-curvature="0" />
    <path
       style="color:#000000;display:inline;overflow:visible;visibility:visible;fill:#888888;fill-opacity:1;fill-rule:nonzero;stroke:none;stroke-width:1;marker:none;enable-background:accumulate"
       d="m 274.4369,157.57641 25.17819,0 c 1.99267,0 3.59688,1.64208 3.59688,3.68179 l 0,25.77253 c 0,2.03971 -1.60421,3.68179 -3.59688,3.68179 l -25.17819,0 c -1.99267,0 -3.59688,-1.64208 -3.59688,-3.68179 l 0,-25.77253 c 0,-2.03971 1.60421,-3.68179 3.59688,-3.68179 z"
       id="path21676"
       inkscape:connector-curvature="0" />
    <path
       style="color:#000000;display:inline;overflow:visible;visibility:visible;fill:#888888;fill-opacity:1;fill-rule:nonzero;stroke:none;stroke-width:1;marker:none;enable-background:accumulate"
       d="m 235.59056,157.57641 25.17819,0 c 1.99267,0 3.59688,1.64208 3.59688,3.68179 l 0,25.77253 c 0,2.03971 -1.60421,3.68179 -3.59688,3.68179 l -25.17819,0 c -2.15813,5.4e-4 -3.59692,-1.47222 -3.59688,-3.68179 l 0,-25.77253 c -4e-5,-2.20857 1.43875,-3.68125 3.59688,-3.68179 z"
       id="path21674"
       inkscape:connector-curvature="0" />
    <path
       style="color:#000000;display:inline;overflow:visible;visibility:visible;fill:#888888;fill-opacity:1;fill-rule:nonzero;stroke:none;stroke-width:1;marker:none;enable-background:accumulate"
       d="m 196.74421,157.57641 25.17819,0 c 1.99268,0 3.59688,1.64208 3.59688,3.68179 l 0,25.77253 c 0,2.03971 -1.6042,3.68179 -3.59688,3.68179 l -25.17819,0 c -1.99267,0 -3.59688,-1.64208 -3.59688,-3.68179 l 0,-25.77253 c 0,-2.03971 1.60421,-3.68179 3.59688,-3.68179 z"
       id="path21672"
       inkscape:connector-curvature="0" />
    <path
       style="color:#000000;display:inline;overflow:visible;visibility:visible;fill:#888888;fill-opacity:1;fill-rule:nonzero;stroke:none;stroke-width:1;marker:none;enable-background:accumulate"
       d="m 157.89787,157.57641 25.17819,0 c 1.99267,0 3.59688,1.64208 3.59688,3.68179 l 0,25.77253 c 0,2.03971 -1.60421,3.68179 -3.59688,3.68179 l -25.17819,0 c -1.99267,0 -3.59688,-1.64208 -3.59688,-3.68179 l 0,-25.77253 c 0,-2.03971 1.60421,-3.68179 3.59688,-3.68179 z"
       id="path21670"
       inkscape:connector-curvature="0" />
    <path
       style="color:#000000;display:inline;overflow:visible;visibility:visible;fill:#888888;fill-opacity:1;fill-rule:nonzero;stroke:none;stroke-width:1;marker:none;enable-background:accumulate"
       d="m 119.05153,157.57641 25.17818,0 c 1.99268,0 3.59689,1.64208 3.59689,3.68179 l 0,25.77253 c 0,2.03971 -1.60421,3.68179 -3.59689,3.68179 l -25.17818,0 c -1.99267,0 -3.59689,-1.64208 -3.59689,-3.68179 l 0,-25.77253 c 0,-2.03971 1.60422,-3.68179 3.59689,-3.68179 z"
       id="path21668"
       inkscape:connector-curvature="0" />
    <path
       style="color:#000000;display:inline;overflow:visible;visibility:visible;fill:#888888;fill-opacity:1;fill-rule:nonzero;stroke:none;stroke-width:1;marker:none;enable-background:accumulate"
       d="m 60.782012,157.57641 44.601358,0 c 1.99267,0 3.59688,1.64208 3.59688,3.68179 l 0,25.77253 c 0,2.03971 -1.60421,3.68179 -3.59688,3.68179 l -44.601358,0 c -1.992674,0 -3.596885,-1.64208 -3.596885,-3.68179 l 0,-25.77253 c 0,-2.03971 1.604211,-3.68179 3.596885,-3.68179 z"
       id="path21666"
       inkscape:connector-curvature="0" />
    <path
       style="color:#000000;display:inline;overflow:visible;visibility:visible;fill:#777777;fill-opacity:1;fill-rule:nonzero;stroke:none;stroke-width:1;marker:none;enable-background:accumulate"
       d="m 728.36363,117.81309 25.17815,0 c 1.99268,0 3.59689,1.64207 3.59689,3.68178 l 0,25.77253 c 0,2.03971 -1.60421,3.68179 -3.59689,3.68179 l -25.17815,0 c -2.15813,5.3e-4 -3.59689,-1.47218 -3.59689,-3.68179 l 0,-25.77253 c 0,-2.20853 1.43876,-3.68124 3.59689,-3.68178 z"
       id="path21664"
       inkscape:connector-curvature="0" />
    <path
       style="color:#000000;display:inline;overflow:visible;visibility:visible;fill:#777777;fill-opacity:1;fill-rule:nonzero;stroke:none;stroke-width:1;marker:none;enable-background:accumulate"
       d="m 689.51729,117.81309 25.17818,0 c 1.99267,0 3.59689,1.64207 3.59689,3.68178 l 0,25.77253 c 0,2.03971 -1.60422,3.68179 -3.59689,3.68179 l -25.17818,0 c -2.15813,5.3e-4 -3.59692,-1.47221 -3.59689,-3.68179 l 0,-25.77253 c -3e-5,-2.20857 1.43876,-3.68124 3.59689,-3.68178 z"
       id="path21662"
       inkscape:connector-curvature="0" />
    <path
       style="color:#000000;display:inline;overflow:visible;visibility:visible;fill:#777777;fill-opacity:1;fill-rule:nonzero;stroke:none;stroke-width:1;marker:none;enable-background:accumulate"
       d="m 650.67094,117.81309 25.17818,0 c 1.99268,0 3.59689,1.64207 3.59689,3.68178 l 0,25.77253 c 0,2.03971 -1.60421,3.68179 -3.59689,3.68179 l -25.17818,0 c -1.99267,0 -3.59688,-1.64208 -3.59688,-3.68179 l 0,-25.77253 c 0,-2.03971 1.60421,-3.68178 3.59688,-3.68178 z"
       id="path21660"
       inkscape:connector-curvature="0" />
    <path
       style="color:#000000;display:inline;overflow:visible;visibility:visible;fill:#888888;fill-opacity:1;fill-rule:nonzero;stroke:none;stroke-width:1;marker:none;enable-background:accumulate"
       d="m 526.96062,117.81309 25.17818,0 c 1.99268,0 3.5969,1.64207 3.5969,3.68178 l 0,25.77253 c 0,2.03971 -1.60422,3.68179 -3.5969,3.68179 l -25.17818,0 c -2.15813,5.3e-4 -3.59689,-1.47218 -3.59689,-3.68179 l 0,-25.77253 c 0,-2.20853 1.43876,-3.68124 3.59689,-3.68178 z"
       id="path21656"
       inkscape:connector-curvature="0" />
    <path
       style="color:#000000;display:inline;overflow:visible;visibility:visible;fill:#888888;fill-opacity:1;fill-rule:nonzero;stroke:none;stroke-width:1;marker:none;enable-background:accumulate"
       d="m 488.11428,117.81309 25.17818,0 c 1.99267,0 3.59689,1.64207 3.59689,3.68178 l 0,25.77253 c 0,2.03971 -1.60422,3.68179 -3.59689,3.68179 l -25.17818,0 c -2.15813,5.3e-4 -3.59692,-1.47221 -3.59689,-3.68179 l 0,-25.77253 c -3e-5,-2.20857 1.43876,-3.68124 3.59689,-3.68178 z"
       id="path21654"
       inkscape:connector-curvature="0" />
    <path
       style="color:#000000;display:inline;overflow:visible;visibility:visible;fill:#888888;fill-opacity:1;fill-rule:nonzero;stroke:none;stroke-width:1;marker:none;enable-background:accumulate"
       d="m 449.26794,117.81309 25.17818,0 c 1.99267,0 3.59689,1.64207 3.59689,3.68178 l 0,25.77253 c 0,2.03971 -1.60422,3.68179 -3.59689,3.68179 l -25.17818,0 c -1.99268,0 -3.59689,-1.64208 -3.59689,-3.68179 l 0,-25.77253 c 0,-2.03971 1.60421,-3.68178 3.59689,-3.68178 z"
       id="path21652"
       inkscape:connector-curvature="0" />
    <path
       style="color:#000000;display:inline;overflow:visible;visibility:visible;fill:#888888;fill-opacity:1;fill-rule:nonzero;stroke:none;stroke-width:1;marker:none;enable-background:accumulate"
       d="m 410.42159,117.81309 25.17818,0 c 1.99268,0 3.59689,1.64207 3.59689,3.68178 l 0,25.77253 c 0,2.03971 -1.60421,3.68179 -3.59689,3.68179 l -25.17818,0 c -1.99267,0 -3.59688,-1.64208 -3.59688,-3.68179 l 0,-25.77253 c 0,-2.03971 1.60421,-3.68178 3.59688,-3.68178 z"
       id="path21650"
       inkscape:connector-curvature="0" />
    <path
       style="color:#000000;display:inline;overflow:visible;visibility:visible;fill:#888888;fill-opacity:1;fill-rule:nonzero;stroke:none;stroke-width:1;marker:none;enable-background:accumulate"
       d="m 371.57525,117.81309 25.17818,0 c 1.99268,0 3.59689,1.64207 3.59689,3.68178 l 0,25.77253 c 0,2.03971 -1.60421,3.68179 -3.59689,3.68179 l -25.17818,0 c -1.99268,0 -3.59688,-1.64208 -3.59688,-3.68179 l 0,-25.77253 c 0,-2.03971 1.6042,-3.68178 3.59688,-3.68178 z"
       id="path21648"
       inkscape:connector-curvature="0" />
    <path
       style="color:#000000;display:inline;overflow:visible;visibility:visible;fill:#888888;fill-opacity:1;fill-rule:nonzero;stroke:none;stroke-width:1;marker:none;enable-background:accumulate"
       d="m 332.7289,117.81309 25.17819,0 c 1.99267,0 3.59688,1.64207 3.59688,3.68178 l 0,25.77253 c 0,2.03971 -1.60421,3.68179 -3.59688,3.68179 l -25.17819,0 c -2.15813,5.3e-4 -3.59692,-1.47218 -3.59688,-3.68179 l 0,-25.77253 c -4e-5,-2.20853 1.43875,-3.68124 3.59688,-3.68178 z"
       id="path21646"
       inkscape:connector-curvature="0" />
    <path
       style="color:#000000;display:inline;overflow:visible;visibility:visible;fill:#888888;fill-opacity:1;fill-rule:nonzero;stroke:none;stroke-width:1;marker:none;enable-background:accumulate"
       d="m 293.88256,117.81309 25.17819,0 c 1.99267,0 3.59688,1.64207 3.59688,3.68178 l 0,25.77253 c 0,2.03971 -1.60421,3.68179 -3.59688,3.68179 l -25.17819,0 c -1.99268,0 -3.59688,-1.64208 -3.59688,-3.68179 l 0,-25.77253 c 0,-2.03971 1.6042,-3.68178 3.59688,-3.68178 z"
       id="path21644"
       inkscape:connector-curvature="0" />
    <path
       style="color:#000000;display:inline;overflow:visible;visibility:visible;fill:#888888;fill-opacity:1;fill-rule:nonzero;stroke:none;stroke-width:1;marker:none;enable-background:accumulate"
       d="m 255.03621,117.81309 25.17819,0 c 1.99268,0 3.59688,1.64207 3.59688,3.68178 l 0,25.77253 c 0,2.03971 -1.6042,3.68179 -3.59688,3.68179 l -25.17819,0 c -1.99267,0 -3.59688,-1.64208 -3.59688,-3.68179 l 0,-25.77253 c 0,-2.03971 1.60421,-3.68178 3.59688,-3.68178 z"
       id="path21642"
       inkscape:connector-curvature="0" />
    <path
       style="color:#000000;display:inline;overflow:visible;visibility:visible;fill:#888888;fill-opacity:1;fill-rule:nonzero;stroke:none;stroke-width:1;marker:none;enable-background:accumulate"
       d="m 216.18987,117.81309 25.17819,0 c 1.99267,0 3.59688,1.64207 3.59688,3.68178 l 0,25.77253 c 0,2.03971 -1.60421,3.68179 -3.59688,3.68179 l -25.17819,0 c -1.99267,0 -3.59688,-1.64208 -3.59688,-3.68179 l 0,-25.77253 c 0,-2.03971 1.60421,-3.68178 3.59688,-3.68178 z"
       id="path21640"
       inkscape:connector-curvature="0" />
    <path
       style="color:#000000;display:inline;overflow:visible;visibility:visible;fill:#888888;fill-opacity:1;fill-rule:nonzero;stroke:none;stroke-width:1;marker:none;enable-background:accumulate"
       d="m 177.34352,117.81309 25.17819,0 c 1.99268,0 3.59689,1.64207 3.59689,3.68178 l 0,25.77253 c 0,2.03971 -1.60421,3.68179 -3.59689,3.68179 l -25.17819,0 c -2.12208,-0.12631 -3.44474,-1.62099 -3.59688,-3.68179 l 0,-25.77253 c -3e-5,-2.20853 1.43875,-3.68124 3.59688,-3.68178 z"
       id="path21638"
       inkscape:connector-curvature="0" />
    <path
       style="color:#000000;display:inline;overflow:visible;visibility:visible;fill:#888888;fill-opacity:1;fill-rule:nonzero;stroke:none;stroke-width:1;marker:none;enable-background:accumulate"
       d="m 138.49718,117.81309 25.17819,0 c 1.99267,0 3.59688,1.64207 3.59688,3.68178 l 0,25.77253 c 0,2.03971 -1.60421,3.68179 -3.59688,3.68179 l -25.17819,0 c -1.99267,0 -3.59688,-1.64208 -3.59688,-3.68179 l 0,-25.77253 c 0,-2.03971 1.60421,-3.68178 3.59688,-3.68178 z"
       id="path21636"
       inkscape:connector-curvature="0" />
    <path
       style="color:#000000;display:inline;overflow:visible;visibility:visible;fill:#888888;fill-opacity:1;fill-rule:nonzero;stroke:none;stroke-width:1;marker:none;enable-background:accumulate"
       d="m 99.650836,117.81309 25.178184,0 c 1.99268,0 3.59689,1.64207 3.59689,3.68178 l 0,25.77253 c 0,2.03971 -1.60421,3.68179 -3.59689,3.68179 l -25.178184,0 c -1.992673,0 -3.596884,-1.64208 -3.596884,-3.68179 l 0,-25.77253 c 0,-2.03971 1.604211,-3.68178 3.596884,-3.68178 z"
       id="path21634"
       inkscape:connector-curvature="0" />
    <path
       style="fill:lime;fill-opacity:1;fill-rule:nonzero;stroke:none;"
       class="down"
       d="m 60.804492,117.81309 25.178186,0 c 1.992674,0 3.596884,1.64207 3.596884,3.68178 l 0,25.77253 c 0,2.03971 -1.60421,3.68179 -3.596884,3.68179 l -25.178186,0 c -1.992674,0 -3.596884,-1.64208 -3.596884,-3.68179 l 0,-25.77253 c 0,-2.03971 1.60421,-3.68178 3.596884,-3.68178 z"
       id="kbd_tilde0"
       inkscape:connector-curvature="0"
       inkscape:label="#path21632" />
  </g>
  <g
     inkscape:groupmode="layer"
     id="layer1"
     inkscape:label="Enter1"
     style="display:none">
    <path
       style="color:#000000;display:inline;overflow:visible;visibility:visible;fill:#888888;fill-opacity:1;fill-rule:nonzero;stroke:none;stroke-width:1;marker:none;enable-background:accumulate"
       d="m 536.29004,237.10306 92.55895,0 c 1.99268,0 3.59689,1.64209 3.59689,3.6818 l 0,25.77253 c 0,0 -1.60421,3.68178 -3.59689,3.68178 l -92.55895,0 c -1.99267,0 -3.59688,-1.64207 -3.59688,-3.68178 l 0,-25.77253 c 0,-2.03971 1.60421,-3.6818 3.59688,-3.6818 z"
       id="path21798"
       inkscape:connector-curvature="0" />
    <path
       style="color:#000000;display:inline;overflow:visible;visibility:visible;fill:#888888;fill-opacity:1;fill-rule:nonzero;stroke:none;stroke-width:1;marker:none;enable-background:accumulate"
       d="m 561.46823,197.33974 66.66139,0 c 1.99267,0 3.59688,1.64208 3.59688,3.68179 l 0,25.77252 c 0,0 -1.60421,3.6818 -3.59688,3.6818 l -66.66139,0 c -1.99268,0 -3.59689,-1.64209 -3.59689,-3.6818 l 0,-25.77252 c 0,-2.03971 1.60421,-3.68179 3.59689,-3.68179 z"
       id="path21774"
       inkscape:connector-curvature="0" />
    <path
       style="color:#000000;display:inline;overflow:visible;visibility:visible;fill:#888888;fill-opacity:1;fill-rule:nonzero;stroke:none;stroke-width:1;marker:none;enable-background:accumulate"
       d="m 585.20766,157.57641 43.16881,0 c 1.99267,0 3.59688,1.64208 3.59688,3.68179 l 0,25.77253 c 0,2.03971 -1.60421,3.68179 -3.59688,3.68179 l -43.16881,0 c -1.99268,0 -3.59688,-1.64208 -3.59688,-3.68179 l 0,-25.77253 c 0,-2.03971 1.6042,-3.68179 3.59688,-3.68179 z"
       id="path21692"
       inkscape:connector-curvature="0" />
    <path
       style="color:#000000;display:inline;overflow:visible;visibility:visible;fill:#888888;fill-opacity:1;fill-rule:nonzero;stroke:none;stroke-width:1;marker:none;enable-background:accumulate"
       d="m 565.78448,117.81309 62.59199,0 c 1.99267,0 3.59688,1.64207 3.59688,3.68178 l 0,25.77253 c 0,3.08108 -1.60421,3.68179 -3.59688,3.68179 l -62.59199,0 c -1.99267,0 -3.59688,-1.64208 -3.59688,-3.68179 l 0,-25.77253 c 0,-2.03971 1.60421,-3.68178 3.59688,-3.68178 z"
       id="path21658"
       inkscape:connector-curvature="0" />
  </g>
  <g
     inkscape:label="Enter2"
     id="g23621"
     inkscape:groupmode="layer"
     style="display:inline">
    <path
       style="color:#000000;display:inline;overflow:visible;visibility:visible;fill:#888888;fill-opacity:1;fill-rule:nonzero;stroke:none;stroke-width:1;marker:none;enable-background:accumulate"
       d="m 585.59298,157.88127 c -1.99268,0 -3.5957,1.64193 -3.5957,3.68164 l 0,25.77344 c 0,2.03971 1.60302,3.68164 3.5957,3.68164 l 9.23633,0 0,36.08203 c 0,2.03971 1.58015,3.68164 3.54297,3.68164 l 30.48047,0 c 1.96281,0 3.54297,-3.68164 3.54297,-3.68164 l 0,-47.49023 c 0,-0.13116 -0.0244,-0.25527 -0.0371,-0.38281 l 0,-17.66407 c 0,-2.03971 -1.60304,-3.68164 -3.59571,-3.68164 l -43.16992,0 z"
       id="path21774-8"
       inkscape:connector-curvature="0" />
    <path
       style="color:#000000;display:inline;overflow:visible;visibility:visible;fill:#888888;fill-opacity:1;fill-rule:nonzero;stroke:none;stroke-width:1;marker:none;enable-background:accumulate"
       d="m 560.03823,198.33631 25.17818,0 c 1.99268,0 3.59689,1.64208 3.59689,3.68179 l 0,25.77252 c 0,2.03971 -1.60421,3.6818 -3.59689,3.6818 l -25.17818,0 c -1.99267,0 -3.59689,-1.64209 -3.59689,-3.6818 l 0,-25.77252 c 0,-2.03971 1.60422,-3.68179 3.59689,-3.68179 z"
       id="path21772-8"
       inkscape:connector-curvature="0" />
    <path
       style="color:#000000;display:inline;overflow:visible;visibility:visible;fill:#888888;fill-opacity:1;fill-rule:nonzero;stroke:none;stroke-width:1;marker:none;enable-background:accumulate"
       d="m 535.87694,236.33156 92.55895,0 c 1.99268,0 3.59689,1.64209 3.59689,3.6818 l 0,25.77253 c 0,0 -1.60421,3.68178 -3.59689,3.68178 l -92.55895,0 c -1.99267,0 -3.59688,-1.64207 -3.59688,-3.68178 l 0,-25.77253 c 0,-2.03971 1.60421,-3.6818 3.59688,-3.6818 z"
       id="path21798-3"
       inkscape:connector-curvature="0" />
    <path
       style="color:#000000;display:inline;overflow:visible;visibility:visible;fill:#888888;fill-opacity:1;fill-rule:nonzero;stroke:none;stroke-width:1;marker:none;enable-background:accumulate"
       d="m 565.37138,117.04159 62.59199,0 c 1.99267,0 3.59688,1.64207 3.59688,3.68178 l 0,25.77253 c 0,3.08108 -1.60421,3.68179 -3.59688,3.68179 l -62.59199,0 c -1.99267,0 -3.59688,-1.64208 -3.59688,-3.68179 l 0,-25.77253 c 0,-2.03971 1.60421,-3.68178 3.59688,-3.68178 z"
       id="path21658-1"
       inkscape:connector-curvature="0" />
  </g>
</svg>
